<?xml version="1.0" encoding="utf-8"?>
<!-- Generator: Adobe Illustrator 25.4.1, SVG Export Plug-In . SVG Version: 6.00 Build 0)  -->
<svg version="1.1" id="Layer_1" xmlns="http://www.w3.org/2000/svg" xmlns:xlink="http://www.w3.org/1999/xlink" x="0px" y="0px"
	 viewBox="0 0 420 146" style="enable-background:new 0 0 420 146;" xml:space="preserve">
<style type="text/css">
	.st0{fill:#154165;}
	.st1{fill:#FFFFFF;}
	.st2{fill:#737476;}
	.st3{fill:#FAF9DE;}
	.st4{fill:#F5F4BC;}
	.st5{fill:#72AEB5;}
	.st6{fill:#F1EF92;}
	.st7{fill:#EEEB66;}
	.st8{fill:#F9F9E0;}
	.st9{fill:#F5F5C1;}
	.st10{fill:#F1EE8D;}
</style>
<path class="st0" d="M185.73,43.34c-2.56-0.02-3.27-0.58-3.75-2.92c-0.17-0.85-0.23-1.73-0.24-2.6c-0.02-4.32-0.01-8.63-0.01-12.95
	c0-3.15,0-3.15,2.91-4.31c4.02-1.61,6.19-0.24,6.27,4.08c0.08,4.5,0.07,9.01,0,13.51c-0.05,3.62-0.74,4.45-3.95,5.35
	c0,0.85,0,1.69,0,2.37c7.3,0,14.45,0,21.65,0c0-0.85,0-1.7,0-2.54c-3.16-0.23-3.94-0.74-4.07-3.93c-0.24-5.68-0.17-11.37-0.19-17.06
	c0-0.38,0.19-0.91,0.48-1.11c1.69-1.19,3.59-1.92,5.64-1.33c1.89,0.54,2.68,2.12,2.92,3.98c0.09,0.68,0.23,1.36,0.24,2.04
	c0.02,4,0.06,7.99-0.01,11.99c-0.04,2.63-0.53,5.06-3.8,5.39c0,1,0,1.85,0,2.56c7.1,0,14.07,0,21.13,0c0-0.79,0-1.68,0-2.57
	c-2.75,0.11-3.8-0.7-4.18-3.27c-0.18-1.22-0.18-2.48-0.17-3.72c0.03-4.25,0.27-8.5,0.13-12.75c-0.18-5.55-3.83-9.51-9.04-10.03
	c-2.83-0.28-5.45,0.6-7.89,1.94c-1.95,1.07-3.83,2.26-5.79,3.42c-1.74-4.16-4.97-5.63-9.18-5.48c-3.3,0.12-6.18,1.4-8.9,3.13
	c-1.34,0.86-2.65,1.78-4.2,2.83c0-1.4,0.01-2.51,0-3.62c-0.01-1.94-0.82-2.46-2.72-1.88c-2.68,0.83-5.35,1.72-8.08,2.35
	c-2.59,0.6-5.26,0.9-7.83,1.32c-0.58,1.53,0.1,2.07,1.4,2.48c1.69,0.54,3.83,0.65,3.79,3.34c-0.07,4.88,0.04,9.76-0.06,14.63
	c-0.08,4.03-1.25,5.18-5.21,5.5c0,0.84,0,1.67,0,2.38c7.64,0,15.15,0,22.71,0C185.73,45.05,185.73,44.25,185.73,43.34z"/>
<path class="st0" d="M167.43,69.07c0.11-0.02,0.23-0.05,0.34-0.07c0.27,0.61,0.56,1.21,0.81,1.83c3.97,9.57,7.93,19.14,11.9,28.72
	c0.35,0.86,0.54,1.69,1.85,1.7c1.32,0.02,1.51-0.85,1.88-1.68c4.2-9.61,8.4-19.22,12.61-28.82c0.25-0.56,0.54-1.11,0.92-1.88
	c0.19,0.47,0.27,0.58,0.27,0.7c0.39,7.92,0.83,15.85,1.15,23.78c0.13,3.23-1.12,4.44-4.3,4.6c-0.48,0.02-0.96,0.07-1.47,0.11
	c-0.03,0.54-0.08,0.97-0.06,1.4c0.02,0.47,0.1,0.94,0.12,1.15c8.46,0,16.73,0,25.08,0c0.02-0.35,0.07-0.78,0.05-1.21
	c-0.02-0.47-0.09-0.94-0.14-1.4c-4.18-0.16-5.34-1.09-5.55-4.81c-0.49-8.67-0.94-17.34-1.28-26.02c-0.16-4.14,0.81-5.26,4.48-5.87
	c0-0.84,0-1.68,0-2.37c-5.96,0-11.8,0-17.9,0c-3.23,7.58-6.58,15.45-10.11,23.73c-1.81-4.45-3.4-8.37-5-12.3
	c-1.6-3.91-3.2-7.83-4.65-11.39c-6.46,0-12.6,0-18.78,0c0,0.75,0,1.61,0,2.46c3.51,0.31,4.62,1.54,4.48,5.06
	c-0.09,2.37-0.27,4.74-0.42,7.11c-0.44,6.67-0.83,13.35-1.36,20.01c-0.22,2.75-1.42,3.81-4.15,4.23c-0.41,0.06-0.82,0.12-1.15,0.16
	c0,1.05,0,1.95,0,2.69c4.8,0,9.45,0,14.08,0c0-0.92,0-1.77,0-2.61c-4.8-0.48-5.41-1.14-5.14-6.02
	C166.42,84.4,166.94,76.74,167.43,69.07z"/>
<path class="st1" d="M134.63,138.18c-3.54,0.34-6.63,0.84-9.74,0.9c-9.84,0.19-19.2-2.29-28.29-5.74
	c-11.14-4.23-22.13-8.86-33.27-13.11c-13.45-5.12-27.26-8.65-41.8-8.45c-7.2,0.1-14.28,1.11-21.53,3.22
	c0.66,0.22,0.99,0.39,1.35,0.44c13.75,1.97,26.84,6.25,39.72,11.29c12.44,4.86,24.78,9.98,37.36,14.45
	c11.59,4.12,23.59,6.02,35.95,4.02C121.4,144.07,128,141.75,134.63,138.18z"/>
<path class="st1" d="M9.92,80.05c-2.4-24,5.68-43.36,26.35-56.02c20.79-12.74,41.72-10.69,61.92,2.47c1.8-2.37,3.61-4.75,5.42-7.13
	C84.16,4.38,54.66,1.43,30.96,16.22C6.67,31.38-3.45,58.85,1.33,82.9C4.19,81.95,7.06,81,9.92,80.05z"/>
<path class="st1" d="M24.49,78.37c-2.04-18,3.9-32.36,19.12-41.83c15.27-9.49,30.74-8.08,45.69,1.62c1.84-2.43,3.64-4.8,5.44-7.17
	c-15.06-11.82-40.02-14.46-59.4-0.17c-9.59,7.08-15.98,16.42-19.01,27.97c-1.75,6.69-2.17,13.48-0.88,20.37
	C18.6,78.89,21.51,78.63,24.49,78.37z"/>
<path class="st1" d="M122.61,113.18c-3.51,0.21-6.8,0.59-10.09,0.56c-6.88-0.05-13.52-1.68-19.91-4.08
	c-10.22-3.84-20.31-8.04-30.52-11.91c-13.32-5.05-26.96-8.37-41.38-6.98c-2.17,0.21-4.35,0.5-6.49,0.89
	c-2.08,0.38-4.13,0.94-6.19,1.42c0.4,0.38,0.75,0.5,1.11,0.56c11.75,1.71,22.94,5.39,33.94,9.7c10.23,4.01,20.37,8.23,30.7,11.95
	c10.52,3.78,21.38,5.62,32.6,3.63C112.06,117.9,117.43,115.98,122.61,113.18z"/>
<path class="st0" d="M116.56,46.13c14.49,0,28.88,0,43.39,0c0.31-3.7,0.6-7.27,0.9-10.86c-1.21,0-2.14,0-3.12,0
	c-0.14,0.86-0.25,1.65-0.4,2.44c-0.57,3.04-2.62,5.17-5.71,5.31c-4.24,0.19-8.5,0.08-12.75,0.02c-1.34-0.02-2.6-0.61-2.63-2.14
	c-0.09-4.84-0.03-9.68-0.03-14.53c0.11-0.03,0.23-0.1,0.34-0.1c3.19-0.01,6.38-0.03,9.57-0.03c4.77,0.01,5.8,0.89,6.45,5.42
	c0.9,0,1.79,0,2.67,0c0-4.61,0-9.08,0-13.57c-0.98,0-1.83,0-2.66,0c-0.34,3.49-1.07,4.72-3.83,4.89c-4.21,0.25-8.45,0.07-12.66,0.07
	c0-5.43,0-10.76,0-16.01c5.09,0,10.02-0.09,14.95,0.04c2.48,0.07,3.92,1.61,4.39,4.12c0.18,0.96,0.27,1.93,0.39,2.83
	c1.09,0,1.99,0,2.98,0c-0.21-3.43-0.41-6.71-0.61-10.06c-13.99,0-27.77,0-41.57,0c0,1.03,0,1.94,0,2.83
	c4.39,0.33,5.37,1.41,5.37,5.76c0,8.26,0,16.51,0,24.77c0,4.49-0.7,5.29-5.12,5.91c-0.1,0.01-0.19,0.15-0.3,0.24
	C116.56,44.31,116.56,45.17,116.56,46.13z"/>
<path class="st0" d="M351.77,100.6c7.13,0,14.08,0,21.06,0c0-0.81,0-1.71,0-2.6c-2.9,0.1-4.05-0.75-4.14-3.67
	c-0.17-5.05,0.06-10.12-0.05-15.17c-0.2-8.85-7.1-13.34-15.23-9.93c-2.22,0.93-4.3,2.2-6.7,3.44c0-0.78,0.01-1.44,0-2.09
	c-0.02-1.98-0.81-2.46-2.68-2c-4.96,1.22-9.95,2.3-14.91,3.5c-0.48,0.12-1.24,0.66-1.21,0.96c0.04,0.52,0.49,1.14,0.94,1.47
	c0.48,0.35,1.16,0.46,1.76,0.58c2.1,0.44,2.76,1.8,2.73,3.82c-0.06,4.44,0.01,8.88-0.03,13.32c-0.03,4.19-1.34,5.63-5.51,6.04
	c0.07,0.84,0.13,1.68,0.18,2.34c7.62,0,15.07,0,22.49,0c0-0.85,0-1.7,0-2.54c-2.93-0.31-3.66-1.02-3.72-4.32
	c-0.11-5.63-0.07-11.25,0.01-16.88c0.01-0.57,0.57-1.37,1.1-1.66c3.64-1.94,6.82-0.48,7.13,3.71c0.37,5.02,0.18,10.1,0.04,15.14
	c-0.05,1.94-0.82,3.71-3.25,3.91C351.77,98.93,351.77,99.79,351.77,100.6z"/>
<path class="st1" d="M41.71,79.49c-3.06-11.31-0.58-20.9,8.79-27.86c9.25-6.87,19.04-6.4,28.83-0.37c1.83-2.41,3.65-4.81,5.54-7.28
	c-0.76-0.52-1.32-0.92-1.89-1.29c-14.74-9.35-34.25-5.85-44.83,8.08c-5.86,7.71-7.96,16.41-6.5,25.97c0.1,0.66,0.67,1.7,1.14,1.77
	C35.67,78.96,38.59,79.18,41.71,79.49z"/>
<path class="st0" d="M264.7,100.61c8.98,0,17.74,0,26.44,0c0-0.87,0-1.71,0-2.61c-0.44,0.02-0.75,0.04-1.05,0.05
	c-4.52,0.18-6.63-1.83-6.64-6.31c0-2.75,0-5.5,0-8.25c0-4.47,3.56-6.9,7.71-5.27c1.77,0.7,3.53,1.42,5.36,2.16
	c1.45-3.15,2.81-6.07,4.22-9.14c-1.68-0.69-3.23-1.34-4.78-1.97c-4.99-2.02-6.55-1.51-9.4,3.11c-0.93,1.5-1.85,3.01-2.78,4.51
	c-0.34-2.19-0.33-4.24-0.34-6.29c-0.01-2.03-0.84-2.56-2.82-1.99c-3.41,0.99-6.83,1.97-10.28,2.8c-1.86,0.45-3.8,0.58-5.63,0.85
	c-0.61,1.57,0.08,2.05,1.39,2.48c1.6,0.53,3.85,0.52,3.86,3.07c0.01,5.13,0.09,10.26-0.08,15.38c-0.11,3.45-1.77,4.87-5.19,4.95
	C264.7,99,264.7,99.85,264.7,100.61z"/>
<path class="st0" d="M270.98,45.88c8.86,0,17.62,0,26.41,0c0-0.84,0-1.68,0-2.6c-0.37,0-0.62-0.01-0.86,0
	c-4.54,0.31-6.76-1.76-6.77-6.32c0-2.81-0.01-5.63,0-8.44c0.01-4.14,3.56-6.64,7.39-5.18c1.85,0.71,3.68,1.49,5.65,2.3
	c1.44-3.11,2.81-6.07,4.24-9.16c-2.15-0.88-4.09-1.73-6.08-2.46c-3.52-1.29-5.2-0.72-7.33,2.42c-0.67,0.98-1.26,2.01-1.89,3.02
	c-0.53,0.85-1.07,1.7-1.6,2.55c-0.38-2.17-0.37-4.15-0.38-6.14c-0.01-2.03-0.85-2.57-2.82-2c-3.35,0.98-6.71,1.95-10.1,2.77
	c-1.97,0.48-4.02,0.65-5.92,0.94c-0.44,1.45,0.01,2.07,1.27,2.33c0.91,0.19,1.87,0.47,2.61,0.99c0.64,0.45,1.42,1.28,1.43,1.95
	c0.1,5.25,0.2,10.51-0.06,15.75c-0.17,3.48-1.8,4.74-5.19,4.82C270.98,44.26,270.98,45.1,270.98,45.88z"/>
<path class="st1" d="M64.71,57.65c-7.29-0.01-13.16,5.77-13.23,13.02c-0.07,7.26,5.91,13.3,13.19,13.32
	c7.25,0.02,13.12-5.83,13.14-13.1C77.83,63.41,72.14,57.66,64.71,57.65z"/>
<path class="st0" d="M301.44,74.11c4.58,0.57,5.12,1.11,5.22,5.62c0.09,4.06,0.06,8.12,0.06,12.18c-0.01,4.14-1.27,5.6-5.36,6.18
	c-0.03,0.41-0.08,0.84-0.07,1.27c0.01,0.48,0.08,0.96,0.11,1.23c7.97,0,15.8,0,23.69,0c0-0.82,0-1.74,0-2.63
	c-4.5-0.85-4.9-1.76-5-6.5c-0.15-6.87-0.04-13.75-0.04-20.62c0-2.45-0.6-2.75-2.93-2.15c-4.76,1.21-9.56,2.31-14.37,3.29
	C301.39,72.26,301.06,72.77,301.44,74.11z"/>
<path class="st1" d="M120.42,67.66c0.57,12.43-2.38,23.57-8.77,34.05c3.11-0.1,6.1-0.48,9.1-0.76c1.46-0.14,2.26-0.82,2.88-2.18
	c2.64-5.77,4.61-11.74,5.39-18.03c0.54-4.35,0.61-8.76,0.88-13.07C126.47,67.66,123.55,67.66,120.42,67.66z"/>
<path class="st1" d="M95.75,98.27c2.91,0.8,5.62,1.47,8.28,2.29c1.2,0.37,1.78-0.06,2.42-1.01c4.56-6.74,7.4-14.13,8.35-22.2
	c0.36-3.05,0.32-6.15,0.46-9.08c-3.39,0-6.31,0-9.42,0C106.46,79.62,103.11,89.48,95.75,98.27z"/>
<path class="st1" d="M89.41,69.05c0.58,9.45-3.09,16.77-10.58,22.53c2.97,1.21,5.69,2.26,8.36,3.42c1.05,0.46,1.65,0.22,2.4-0.6
	c4.01-4.37,6.83-9.37,8.22-15.14c0.83-3.45,1.28-6.95,0.74-10.62C95.47,68.79,92.55,68.91,89.41,69.05z"/>
<path class="st0" d="M312.21,67.83c0.5,0,1,0.04,1.5-0.01c3.64-0.34,6.33-2.71,6.75-5.92c0.39-3-1.54-5.87-4.81-6.95
	c-2.78-0.92-5.57-0.82-8.18,0.56c-4.13,2.17-4.75,7.32-1.32,10.33C307.88,67.36,309.95,67.9,312.21,67.83z"/>
<path class="st2" d="M386.73,135.72c-0.42,3.31,0.73,5.66,3.45,6.18c1.77,0.34,3.74,0.22,5.52-0.17c2.08-0.46,3.1-2.15,3.37-4.27
	c0.36-2.91-0.93-4.92-3.36-6.36c-1.61-0.95-3.4-1.72-4.73-2.97c-0.72-0.68-1.11-2.34-0.8-3.28c0.27-0.82,1.66-1.62,2.66-1.78
	c2.03-0.33,2.79,0.63,3.47,3.6c0.85,0,1.7,0,2.65,0c0-2.25-0.27-4.32-2.43-5.35c-2.45-1.17-5.01-1.13-7.33,0.41
	c-2.02,1.34-2.41,3.43-2.05,5.65c0.32,1.95,1.75,3.1,3.36,4.04c1.51,0.88,3.09,1.67,4.5,2.68c1.2,0.86,1.63,2.13,1.14,3.66
	c-0.49,1.5-1.64,1.96-3.01,2.1c-2.32,0.23-3.37-0.84-4.08-4.15C388.28,135.72,387.5,135.72,386.73,135.72z"/>
<path class="st2" d="M292.07,121.2c0,5.45,0,10.8,0.01,16.15c0,0.3,0.14,0.6,0.23,0.9c0.94,2.93,2.74,4.06,6.37,3.99
	c3.23-0.06,5.06-1.38,5.8-4.25c0.2-0.78,0.36-1.6,0.36-2.4c0.03-4.79,0.02-9.57,0.02-14.38c-0.97,0-1.74,0-2.64,0
	c0,3.67,0.03,7.22-0.01,10.77c-0.02,1.68-0.04,3.38-0.32,5.03c-0.38,2.24-1.53,3-3.84,2.9c-1.89-0.08-3.13-1.09-3.28-3.15
	c-0.22-2.92-0.19-5.86-0.23-8.79c-0.03-2.24-0.01-4.47-0.01-6.78C293.54,121.2,292.75,121.2,292.07,121.2z"/>
<path class="st2" d="M337.07,126.72c0.23-3.72-0.95-5.51-3.82-5.99c-4.09-0.68-7.4,0.67-7.72,3.95c-0.44,4.55-0.52,9.25,0.15,13.75
	c0.56,3.8,3.7,4.27,7.81,3.65c2.77-0.42,4.24-3.1,3.8-6.31c-1.54-0.36-2.7-0.39-2.94,1.77c-0.17,1.56-1.38,2.41-3.08,2.42
	c-1.7,0.01-2.99-0.78-3.07-2.38c-0.2-4.03-0.21-8.08-0.08-12.12c0.05-1.56,1.33-2.31,2.86-2.45c2.16-0.2,2.81,0.48,3.59,3.73
	C335.35,126.72,336.15,126.72,337.07,126.72z"/>
<path class="st2" d="M363.3,141.75c0-6.18,0-12.2,0-18.38c1.9,0,3.56,0,5.26,0c0-0.81,0-1.46,0-2.16c-4.51,0-8.91,0-13.35,0
	c0,0.76,0,1.41,0,2.23c1.77,0,3.43,0,5.29,0c0,6.2,0,12.23,0,18.31C361.45,141.75,362.19,141.75,363.3,141.75z"/>
<path class="st2" d="M419.22,127.48c0.26-0.04,0.52-0.09,0.78-0.13c0-2.16,0-4.33,0-6.73c-2.93,0.26-1.86,3.17-3.07,4.27
	c-1.64-0.85-0.15-4.33-3.34-4.13c-0.55,3.68-0.31,6.02,0.91,6.8c0-1.44,0-2.73,0-4.02c0.75,0.96,1.06,1.96,1.46,2.92
	c0.15,0.36,0.49,0.64,0.74,0.96c0.3-0.34,0.69-0.63,0.87-1.02c0.43-0.95,0.76-1.95,1.12-2.93c0.08,0.03,0.16,0.07,0.24,0.1
	C419.02,124.89,419.12,126.19,419.22,127.48z"/>
<path class="st2" d="M410.73,121.88c0.97-0.28,1.48-0.42,2-0.57c-0.03-0.12-0.06-0.24-0.1-0.36c-1.55,0-3.1,0-4.64,0
	c-0.01,0.12-0.02,0.25-0.03,0.37c0.54,0.16,1.09,0.31,1.7,0.49c0.09,1.9,0.17,3.78,0.26,5.65c0.27-0.01,0.54-0.02,0.81-0.03
	C410.73,125.59,410.73,123.73,410.73,121.88z"/>
<path class="st0" d="M185.73,43.34c0,0.91,0,1.71,0,2.53c-7.56,0-15.07,0-22.71,0c0-0.71,0-1.55,0-2.38
	c3.96-0.32,5.13-1.47,5.21-5.5c0.1-4.88-0.01-9.76,0.06-14.63c0.04-2.68-2.1-2.8-3.79-3.34c-1.3-0.41-1.98-0.95-1.4-2.48
	c2.57-0.42,5.24-0.72,7.83-1.32c2.73-0.63,5.4-1.53,8.08-2.35c1.91-0.59,2.71-0.06,2.72,1.88c0.01,1.11,0,2.22,0,3.62
	c1.55-1.05,2.86-1.97,4.2-2.83c2.72-1.73,5.6-3.01,8.9-3.13c4.22-0.15,7.45,1.32,9.18,5.48c1.96-1.16,3.84-2.35,5.79-3.42
	c2.45-1.34,5.06-2.22,7.89-1.94c5.2,0.51,8.86,4.47,9.04,10.03c0.13,4.24-0.1,8.5-0.13,12.75c-0.01,1.24,0,2.5,0.17,3.72
	c0.37,2.57,1.43,3.38,4.18,3.27c0,0.9,0,1.78,0,2.57c-7.06,0-14.03,0-21.13,0c0-0.71,0-1.56,0-2.56c3.26-0.33,3.75-2.76,3.8-5.39
	c0.06-3.99,0.03-7.99,0.01-11.99c0-0.68-0.15-1.36-0.24-2.04c-0.25-1.86-1.03-3.44-2.92-3.98c-2.06-0.59-3.95,0.14-5.64,1.33
	c-0.29,0.2-0.48,0.73-0.48,1.11c0.02,5.69-0.05,11.38,0.19,17.06c0.14,3.19,0.91,3.7,4.07,3.93c0,0.84,0,1.69,0,2.54
	c-7.21,0-14.35,0-21.65,0c0-0.68,0-1.52,0-2.37c3.21-0.9,3.9-1.73,3.95-5.35c0.07-4.5,0.08-9.01,0-13.51
	c-0.08-4.32-2.25-5.69-6.27-4.08c-2.91,1.16-2.91,1.16-2.91,4.31c0,4.32-0.01,8.63,0.01,12.95c0,0.87,0.07,1.75,0.24,2.6
	C182.45,42.77,183.17,43.32,185.73,43.34z"/>
<path class="st0" d="M167.43,69.07c-0.49,7.67-1.01,15.33-1.44,23c-0.28,4.88,0.34,5.54,5.14,6.02c0,0.84,0,1.69,0,2.61
	c-4.63,0-9.28,0-14.08,0c0-0.75,0-1.64,0-2.69c0.34-0.05,0.75-0.1,1.15-0.16c2.73-0.42,3.93-1.48,4.15-4.23
	c0.53-6.66,0.92-13.34,1.36-20.01c0.16-2.37,0.33-4.74,0.42-7.11c0.14-3.52-0.97-4.75-4.48-5.06c0-0.85,0-1.71,0-2.46
	c6.18,0,12.32,0,18.78,0c1.46,3.57,3.06,7.48,4.65,11.39c1.6,3.93,3.19,7.85,5,12.3c3.53-8.28,6.88-16.15,10.11-23.73
	c6.1,0,11.95,0,17.9,0c0,0.69,0,1.53,0,2.37c-3.67,0.6-4.65,1.72-4.48,5.87c0.34,8.68,0.79,17.35,1.28,26.02
	c0.21,3.72,1.36,4.65,5.55,4.81c0.05,0.45,0.12,0.92,0.14,1.4c0.01,0.43-0.04,0.86-0.05,1.21c-8.34,0-16.62,0-25.08,0
	c-0.02-0.21-0.11-0.68-0.12-1.15c-0.02-0.43,0.04-0.86,0.06-1.4c0.52-0.04,0.99-0.09,1.47-0.11c3.19-0.17,4.43-1.37,4.3-4.6
	c-0.32-7.93-0.75-15.85-1.15-23.78c-0.01-0.12-0.09-0.23-0.27-0.7c-0.38,0.77-0.67,1.32-0.92,1.88c-4.2,9.61-8.4,19.22-12.61,28.82
	c-0.36,0.83-0.56,1.69-1.88,1.68c-1.31-0.02-1.5-0.85-1.85-1.7c-3.96-9.57-7.93-19.15-11.9-28.72c-0.26-0.62-0.54-1.22-0.81-1.83
	C167.66,69.02,167.54,69.05,167.43,69.07z"/>
<path class="st2" d="M134.63,138.18c-6.63,3.58-13.23,5.89-20.25,7.02c-12.36,2-24.36,0.1-35.95-4.02
	c-12.58-4.47-24.92-9.59-37.36-14.45c-12.88-5.04-25.97-9.32-39.72-11.29C0.99,115.38,0.66,115.21,0,115
	c7.25-2.11,14.33-3.11,21.53-3.22c14.54-0.2,28.35,3.33,41.8,8.45c11.14,4.24,22.13,8.88,33.27,13.11
	c9.09,3.45,18.45,5.94,28.29,5.74C128,139.02,131.09,138.52,134.63,138.18z"/>
<path class="st3" d="M9.92,80.05C7.06,81,4.19,81.95,1.33,82.9c-4.78-24.05,5.34-51.52,29.63-66.68
	c23.7-14.79,53.2-11.84,72.65,3.15c-1.81,2.38-3.62,4.76-5.42,7.13c-20.2-13.16-41.12-15.21-61.92-2.47
	C15.6,36.7,7.53,56.05,9.92,80.05z"/>
<path class="st0" d="M414.69,41.33c0,0.81,0,1.49,0,2.36c-4.45,0.91-8.9,1.82-13.35,2.73c-0.49,0.1-0.98,0.21-1.47,0.31
	c-2.8,0.56-3.45,0.05-3.5-2.76c-0.01-0.29-0.04-0.59-0.04-0.58c-2.5,1.14-4.9,2.77-7.52,3.33c-9.91,2.14-18.04-5.49-17.31-15.95
	c0.84-11.95,10.38-19.17,22.32-16.88c0.73,0.14,1.46,0.27,2.17,0.4c1.45-4.46-0.64-7.91-5.15-8.58c-0.54-1.36-0.18-1.82,1.39-2.13
	c4.83-0.95,9.62-2.11,14.39-3.33c2.35-0.6,3.13-0.16,3.13,2.26c0,11.01,0,22.02,0,33.04c0,0.69,0,1.38,0.06,2.06
	C410.14,41.14,411.02,41.84,414.69,41.33z M396.38,29.38c0-2.88,0.09-5.76-0.05-8.63c-0.04-0.89-0.47-1.97-1.09-2.6
	c-3.01-3.1-7.4-2.3-8.91,1.76c-0.81,2.18-1.29,4.63-1.23,6.94c0.09,3.52,0.3,7.17,1.31,10.5c1.22,3.99,5.42,5.15,8.84,2.94
	c0.55-0.36,1.05-1.24,1.08-1.9C396.44,35.39,396.38,32.38,396.38,29.38z"/>
<path class="st4" d="M24.49,78.37c-2.98,0.26-5.88,0.51-9.02,0.79c-1.29-6.89-0.87-13.68,0.88-20.37
	c3.03-11.55,9.41-20.89,19.01-27.97c19.37-14.3,44.34-11.65,59.4,0.17c-1.8,2.37-3.6,4.75-5.44,7.17
	c-14.95-9.7-30.42-11.11-45.69-1.62C28.38,46.01,22.44,60.37,24.49,78.37z"/>
<path class="st5" d="M122.61,113.18c-5.18,2.8-10.55,4.72-16.23,5.73c-11.22,1.99-22.08,0.15-32.6-3.63
	c-10.33-3.71-20.48-7.94-30.7-11.95c-11.01-4.31-22.19-7.99-33.94-9.7c-0.36-0.05-0.72-0.18-1.11-0.56
	c2.06-0.48,4.11-1.04,6.19-1.42c2.15-0.39,4.32-0.68,6.49-0.89c14.42-1.39,28.06,1.94,41.38,6.98c10.21,3.87,20.3,8.07,30.52,11.91
	c6.39,2.4,13.03,4.03,19.91,4.08C115.81,113.76,119.1,113.38,122.61,113.18z"/>
<path class="st0" d="M116.56,46.13c0-0.95,0-1.81,0-2.66c0.11-0.09,0.19-0.22,0.3-0.24c4.42-0.62,5.12-1.42,5.12-5.91
	c0-8.26,0-16.51,0-24.77c0-4.35-0.99-5.43-5.37-5.76c0-0.89,0-1.79,0-2.83c13.8,0,27.59,0,41.57,0c0.2,3.35,0.41,6.63,0.61,10.06
	c-0.98,0-1.88,0-2.98,0c-0.12-0.89-0.22-1.87-0.39-2.83c-0.47-2.51-1.91-4.05-4.39-4.12c-4.93-0.13-9.86-0.04-14.95-0.04
	c0,5.25,0,10.58,0,16.01c4.21,0,8.45,0.19,12.66-0.07c2.76-0.17,3.49-1.4,3.83-4.89c0.83,0,1.68,0,2.66,0c0,4.49,0,8.95,0,13.57
	c-0.88,0-1.77,0-2.67,0c-0.64-4.53-1.68-5.41-6.45-5.42c-3.19-0.01-6.38,0.01-9.57,0.03c-0.12,0-0.23,0.07-0.34,0.1
	c0,4.85-0.06,9.69,0.03,14.53c0.03,1.53,1.29,2.12,2.63,2.14c4.25,0.06,8.51,0.17,12.75-0.02c3.09-0.14,5.14-2.27,5.71-5.31
	c0.15-0.79,0.26-1.59,0.4-2.44c0.99,0,1.91,0,3.12,0c-0.3,3.59-0.6,7.16-0.9,10.86C145.45,46.13,131.05,46.13,116.56,46.13z"/>
<path class="st0" d="M351.77,100.6c0-0.81,0-1.68,0-2.64c2.43-0.2,3.2-1.97,3.25-3.91c0.14-5.05,0.33-10.12-0.04-15.14
	c-0.31-4.18-3.49-5.65-7.13-3.71c-0.53,0.28-1.09,1.09-1.1,1.66c-0.08,5.63-0.12,11.26-0.01,16.88c0.06,3.3,0.79,4.01,3.72,4.32
	c0,0.84,0,1.68,0,2.54c-7.42,0-14.87,0-22.49,0c-0.05-0.66-0.12-1.5-0.18-2.34c4.17-0.41,5.48-1.85,5.51-6.04
	c0.04-4.44-0.04-8.88,0.03-13.32c0.03-2.02-0.63-3.38-2.73-3.82c-0.61-0.13-1.29-0.24-1.76-0.58c-0.46-0.33-0.9-0.95-0.94-1.47
	c-0.02-0.29,0.73-0.84,1.21-0.96c4.96-1.19,9.95-2.28,14.91-3.5c1.86-0.46,2.65,0.02,2.68,2c0.01,0.66,0,1.31,0,2.09
	c2.4-1.25,4.48-2.51,6.7-3.44c8.13-3.41,15.03,1.08,15.23,9.93c0.11,5.06-0.11,10.12,0.05,15.17c0.1,2.92,1.24,3.77,4.14,3.67
	c0,0.89,0,1.79,0,2.6C365.86,100.6,358.91,100.6,351.77,100.6z"/>
<path class="st0" d="M237.78,77.25c-3.73,1.51-7.41,3.01-11.11,4.5c-1.25-3.57-0.34-6.85,2.48-9.2c2.69-2.24,5.91-3.19,9.27-3.76
	c3.72-0.63,7.45-0.81,11.16,0.17c4.65,1.23,7.18,4.44,7.22,9.24c0.03,4.88,0.01,9.75,0.01,14.63c0,0.5-0.02,1,0.02,1.5
	c0.18,2.41,0.87,2.8,3.09,1.79c0.23-0.1,0.46-0.19,0.97-0.39c0.41,0.45,0.9,0.99,1.38,1.51c-4.32,5.83-14.3,6.11-18.54,0.46
	c-3.77,4.3-8.66,4.49-13.77,3.56c-3.52-0.65-5.78-2.7-6.13-5.72c-0.43-3.71-0.3-7.43,3.51-9.55c2.05-1.14,4.33-1.9,6.55-2.72
	c2.86-1.06,5.78-1.98,8.64-3.06c0.48-0.18,1.04-0.87,1.08-1.36c0.12-1.55,0.11-3.13-0.02-4.68c-0.19-2.2-1.13-3.02-3.07-2.93
	c-1.79,0.08-3.18,1.42-3.2,3.26C237.3,75.33,237.59,76.18,237.78,77.25z M243.66,82.17c-2.22,0.4-3.86,1.39-5.04,3.12
	c-1.64,2.38-2.01,5.07-1.77,7.86c0.25,2.91,2.61,4.44,5.31,3.36c0.62-0.25,1.42-1.06,1.44-1.64
	C243.72,90.7,243.66,86.52,243.66,82.17z"/>
<path class="st0" d="M345.89,42.91c-3.51,2.86-7.35,4.71-12.04,4.02c-2.64-0.39-4.89-1.43-6.51-3.96c-3.98,4.37-8.99,4.5-14.19,3.46
	c-2.9-0.58-5.09-2.24-5.65-5.3c-0.64-3.5-0.58-7.05,2.67-9.33c1.9-1.33,4.22-2.12,6.42-2.96c3.08-1.18,6.22-2.23,9.37-3.25
	c0.99-0.32,1.45-0.76,1.36-1.84c-0.12-1.49-0.03-3-0.19-4.49c-0.22-2.06-1.21-2.92-3-2.83c-1.78,0.09-3.17,1.46-3.19,3.28
	c-0.01,0.85,0.22,1.7,0.37,2.79c-3.59,1.46-7.26,2.96-10.93,4.46c-1.36-2.53-0.73-5.98,1.47-8.31c2.48-2.63,5.72-3.88,9.13-4.37
	c3.25-0.47,6.6-0.66,9.87-0.44c6.24,0.43,9.55,4.23,9.57,10.47c0.02,4.75,0,9.5,0.01,14.26c0,0.62-0.01,1.26,0.09,1.87
	c0.22,1.29,0.94,2.02,2.22,1.26c1.7-1.02,2.48-0.17,3.09,1.26L345.89,42.91z M327.3,27.76c-0.31-0.1-0.43-0.18-0.54-0.17
	c-4.84,0.69-8.46,8.82-5.73,12.93c1.06,1.6,2.73,1.74,4.34,1.33c0.74-0.19,1.82-1.08,1.85-1.69
	C327.37,36.01,327.3,31.85,327.3,27.76z"/>
<path class="st0" d="M411.95,83.82c-7.08,0-13.82,0-20.72,0c0.25,3.5,0.66,6.75,2.5,9.62c2.54,3.98,7.58,5.04,11.7,2.33
	c1.85-1.22,3.42-2.87,5.14-4.35c0.54,0.47,1.22,1.06,1.87,1.63c-6.02,8.7-14.83,10.46-23.42,8.03c-6.88-1.95-11.28-7.74-11.35-14.42
	c-0.09-8.72,3.92-14.85,11.36-17.25c3.99-1.29,8.09-1.56,12.22-0.75c5.26,1.02,9.05,5.12,10.17,10.97
	C411.67,80.9,411.76,82.21,411.95,83.82z M399.44,81.12c-0.12-2.93-0.05-5.7-1.52-8.15c-1.39-2.33-3.67-2.31-5.03,0.01
	c-1.46,2.5-1.46,5.3-1.65,8.14C394.04,81.12,396.6,81.12,399.44,81.12z"/>
<path class="st0" d="M267.88,38.81c-6.69,9.99-18.59,9.95-25.71,6.47c-6.04-2.95-8.92-8-8.69-14.72c0.24-7.02,3.2-12.4,9.84-15.28
	c4.42-1.92,9.09-2.31,13.78-1.34c4.87,1.01,8.08,4.09,9.56,8.81c0.61,1.93,0.82,3.99,1.26,6.21c-7.11,0-13.85,0-20.55,0
	c-1.4,5.93,2.87,12.87,8.17,13.46c2.94,0.33,5.36-0.84,7.54-2.67c1.1-0.92,2.18-1.87,3.48-2.98
	C266.8,37.14,267.28,37.89,267.88,38.81z M255.69,26.39c-0.66-2.83-1-5.57-1.98-8.06c-0.94-2.39-3.54-2.47-4.86-0.36
	c-1.61,2.57-1.69,5.48-1.78,8.42C249.93,26.39,252.53,26.39,255.69,26.39z"/>
<path class="st6" d="M41.71,79.49c-3.12-0.31-6.04-0.53-8.93-0.97c-0.47-0.07-1.04-1.11-1.14-1.77c-1.46-9.55,0.64-18.25,6.5-25.97
	c10.58-13.93,30.08-17.43,44.83-8.08c0.58,0.37,1.13,0.77,1.89,1.29c-1.88,2.47-3.71,4.87-5.54,7.28
	c-9.79-6.04-19.58-6.5-28.83,0.37C41.13,58.6,38.65,68.19,41.71,79.49z"/>
<path class="st0" d="M345.85,42.96c2.05,0.52,3.55-0.02,4.24-1.9c0.48-1.31,0.7-2.8,0.71-4.2c0.06-8.44,0.03-16.89,0.03-25.34
	c0-3.55-0.11-3.77-3.46-5.07c-1.18-0.46-2.06-0.92-1.39-2.59c1.38-0.22,2.92-0.36,4.41-0.72c3.69-0.91,7.37-1.89,11.04-2.92
	c2.04-0.57,2.8-0.1,2.8,2.02c0.01,11.39,0,22.77,0.01,34.16c0,0.75,0.01,1.5,0.1,2.25c0.43,3.49,1.39,4.46,4.78,4.81
	c0,0.84,0,1.69,0,2.42c-7.78,0-15.44,0-23.22,0c0-0.89,0-1.92,0-2.97C345.89,42.91,345.85,42.96,345.85,42.96z"/>
<path class="st0" d="M264.7,100.61c0-0.75,0-1.61,0-2.46c3.42-0.08,5.08-1.5,5.19-4.95c0.17-5.12,0.09-10.25,0.08-15.38
	c-0.01-2.55-2.26-2.54-3.86-3.07c-1.31-0.43-2.01-0.91-1.39-2.48c1.83-0.27,3.77-0.4,5.63-0.85c3.45-0.83,6.87-1.81,10.28-2.8
	c1.98-0.57,2.81-0.05,2.82,1.99c0.01,2.05,0,4.1,0.34,6.29c0.93-1.5,1.85-3.01,2.78-4.51c2.86-4.62,4.41-5.14,9.4-3.11
	c1.55,0.63,3.09,1.27,4.78,1.97c-1.42,3.06-2.77,5.99-4.22,9.14c-1.83-0.74-3.59-1.46-5.36-2.16c-4.15-1.63-7.71,0.8-7.71,5.27
	c0,2.75,0,5.5,0,8.25c0,4.48,2.12,6.49,6.64,6.31c0.3-0.01,0.61-0.03,1.05-0.05c0,0.91,0,1.75,0,2.61
	C282.44,100.61,273.68,100.61,264.7,100.61z"/>
<path class="st0" d="M270.98,45.88c0-0.78,0-1.62,0-2.47c3.39-0.08,5.02-1.34,5.19-4.82c0.26-5.24,0.16-10.5,0.06-15.75
	c-0.01-0.67-0.79-1.51-1.43-1.95c-0.74-0.52-1.7-0.8-2.61-0.99c-1.26-0.26-1.71-0.88-1.27-2.33c1.9-0.29,3.95-0.46,5.92-0.94
	c3.39-0.82,6.75-1.79,10.1-2.77c1.97-0.57,2.82-0.03,2.82,2c0.01,1.99,0,3.98,0.38,6.14c0.53-0.85,1.07-1.7,1.6-2.55
	c0.63-1.01,1.22-2.04,1.89-3.02c2.13-3.14,3.81-3.72,7.33-2.42c1.98,0.73,3.92,1.59,6.08,2.46c-1.43,3.09-2.8,6.05-4.24,9.16
	c-1.97-0.81-3.8-1.59-5.65-2.3c-3.82-1.46-7.37,1.04-7.39,5.18c-0.01,2.81-0.01,5.63,0,8.44c0.01,4.56,2.23,6.63,6.77,6.32
	c0.24-0.02,0.48,0,0.86,0c0,0.92,0,1.76,0,2.6C288.61,45.88,279.85,45.88,270.98,45.88z"/>
<path class="st7" d="M64.71,57.65c7.44,0.01,13.13,5.76,13.1,13.24c-0.02,7.26-5.89,13.11-13.14,13.1
	c-7.28-0.02-13.26-6.06-13.19-13.32C51.54,63.42,57.41,57.64,64.71,57.65z"/>
<path class="st0" d="M301.44,74.11c-0.38-1.34-0.05-1.85,1.3-2.13c4.82-0.98,9.61-2.08,14.37-3.29c2.33-0.59,2.93-0.3,2.93,2.15
	c0,6.87-0.11,13.75,0.04,20.62c0.1,4.74,0.5,5.65,5,6.5c0,0.9,0,1.81,0,2.63c-7.89,0-15.71,0-23.69,0c-0.03-0.27-0.1-0.75-0.11-1.23
	c-0.01-0.43,0.05-0.86,0.07-1.27c4.08-0.57,5.35-2.03,5.36-6.18c0.01-4.06,0.03-8.12-0.06-12.18
	C306.56,75.21,306.02,74.68,301.44,74.11z"/>
<path class="st8" d="M120.42,67.66c3.13,0,6.04,0,9.49,0c-0.28,4.31-0.34,8.72-0.88,13.07c-0.78,6.29-2.76,12.26-5.39,18.03
	c-0.62,1.36-1.42,2.04-2.88,2.18c-3,0.29-5.99,0.67-9.1,0.76C118.04,91.24,120.99,80.09,120.42,67.66z"/>
<path class="st9" d="M95.75,98.27c7.36-8.78,10.7-18.65,10.1-30.01c3.11,0,6.02,0,9.42,0c-0.14,2.93-0.1,6.03-0.46,9.08
	c-0.95,8.07-3.8,15.46-8.35,22.2c-0.64,0.95-1.22,1.38-2.42,1.01C101.37,99.74,98.67,99.06,95.75,98.27z"/>
<path class="st10" d="M89.41,69.05c3.14-0.14,6.05-0.27,9.14-0.4c0.54,3.68,0.09,7.17-0.74,10.62c-1.39,5.77-4.21,10.77-8.22,15.14
	c-0.75,0.82-1.34,1.06-2.4,0.6c-2.67-1.17-5.38-2.21-8.36-3.42C86.32,85.83,90,78.51,89.41,69.05z"/>
<path class="st0" d="M312.21,67.83c-2.26,0.07-4.32-0.47-6.06-1.99c-3.43-3.01-2.81-8.16,1.32-10.33c2.61-1.37,5.4-1.47,8.18-0.56
	c3.27,1.08,5.21,3.95,4.81,6.95c-0.42,3.22-3.11,5.58-6.75,5.92C313.21,67.87,312.71,67.83,312.21,67.83z"/>
<path class="st2" d="M196.15,132.36c0,3.28,0,6.26,0,9.35c-0.93,0-1.71,0-2.61,0c0-6.81,0-13.58,0-20.51c2.91,0,5.77-0.17,8.6,0.06
	c1.84,0.15,2.87,1.59,3.28,3.4c0.47,2.09,0.19,3.98-1.51,5.46c-0.36,0.32-0.8,0.54-1.41,0.94c1.99,0.65,2.46,2.11,2.59,3.81
	c0.18,2.24,0.42,4.47,0.63,6.7c-2.71,0.61-2.89,0.52-3.19-2.14c-0.13-1.11-0.13-2.24-0.18-3.36c-0.11-2.94-0.9-3.69-3.9-3.69
	C197.79,132.36,197.12,132.36,196.15,132.36z M196.26,129.94c2.19-0.49,4.69,1.02,5.95-1.42c0.55-1.06,0.53-3.01-0.1-3.96
	c-1.42-2.13-3.81-0.82-5.85-1.18C196.26,125.66,196.26,127.63,196.26,129.94z"/>
<path class="st2" d="M225.22,130.94c0-1.56-0.07-3.13,0.01-4.68c0.18-3.45,2.49-5.53,6.19-5.66c3.75-0.12,6.4,1.72,6.61,5.13
	c0.24,3.79,0.21,7.62-0.07,11.4c-0.25,3.3-2.37,4.98-5.62,5.11c-4.04,0.15-6.15-1.13-6.81-4.59c-0.42-2.18-0.32-4.47-0.45-6.7
	C225.13,130.94,225.18,130.94,225.22,130.94z M235.37,131.39c0.02,0,0.03,0,0.05,0c0-1.62,0.09-3.24-0.02-4.86
	c-0.15-2.3-1.41-3.5-3.51-3.56c-2.27-0.06-3.74,1.02-3.85,3.38c-0.16,3.41-0.14,6.85,0.13,10.26c0.2,2.56,1.43,3.4,3.83,3.32
	c2-0.07,3.14-1.14,3.35-3.5C235.49,134.76,235.37,133.07,235.37,131.39z"/>
<path class="st2" d="M386.73,135.72c0.77,0,1.55,0,2.31,0c0.71,3.3,1.76,4.38,4.08,4.15c1.37-0.14,2.52-0.6,3.01-2.1
	c0.5-1.53,0.06-2.8-1.14-3.66c-1.41-1.02-2.99-1.8-4.5-2.68c-1.61-0.94-3.05-2.08-3.36-4.04c-0.36-2.22,0.04-4.32,2.05-5.65
	c2.32-1.54,4.87-1.57,7.33-0.41c2.16,1.03,2.44,3.1,2.43,5.35c-0.95,0-1.8,0-2.65,0c-0.68-2.97-1.44-3.93-3.47-3.6
	c-1,0.16-2.4,0.96-2.66,1.78c-0.31,0.94,0.08,2.61,0.8,3.28c1.33,1.25,3.12,2.02,4.73,2.97c2.43,1.43,3.72,3.44,3.36,6.36
	c-0.26,2.12-1.28,3.81-3.37,4.27c-1.78,0.39-3.74,0.51-5.52,0.17C387.46,141.38,386.31,139.03,386.73,135.72z"/>
<path class="st2" d="M292.07,121.2c0.68,0,1.46,0,2.45,0c0,2.31-0.03,4.54,0.01,6.78c0.04,2.93,0.01,5.87,0.23,8.79
	c0.16,2.07,1.39,3.07,3.28,3.15c2.31,0.1,3.46-0.66,3.84-2.9c0.28-1.65,0.3-3.35,0.32-5.03c0.04-3.55,0.01-7.1,0.01-10.77
	c0.9,0,1.67,0,2.64,0c0,4.8,0.02,9.59-0.02,14.38c-0.01,0.8-0.16,1.62-0.36,2.4c-0.74,2.87-2.57,4.19-5.8,4.25
	c-3.63,0.07-5.43-1.06-6.37-3.99c-0.09-0.3-0.23-0.6-0.23-0.9C292.07,132,292.07,126.65,292.07,121.2z"/>
<path class="st2" d="M164.84,132.91c0,2.94,0,5.79,0,8.77c-0.95,0-1.79,0-2.72,0c0-6.8,0-13.58,0-20.5c2.69,0,5.31-0.17,7.89,0.05
	c2.46,0.21,3.87,2.21,4.01,5.08c0.17,3.33-1.04,5.46-3.76,6.07C168.59,132.76,166.82,132.73,164.84,132.91z M164.93,123.4
	c0,2.43,0,4.59,0,6.9c2.11-0.04,4.46,0.67,5.69-1.45c0.6-1.03,0.6-2.94,0.04-4.02C169.48,122.54,167.05,123.63,164.93,123.4z"/>
<path class="st2" d="M337.07,126.72c-0.92,0-1.72,0-2.5,0c-0.78-3.25-1.42-3.93-3.59-3.73c-1.53,0.14-2.81,0.89-2.86,2.45
	c-0.12,4.04-0.12,8.08,0.08,12.12c0.08,1.6,1.37,2.39,3.07,2.38c1.7-0.01,2.91-0.86,3.08-2.42c0.24-2.16,1.4-2.13,2.94-1.77
	c0.44,3.21-1.03,5.89-3.8,6.31c-4.11,0.63-7.25,0.16-7.81-3.65c-0.67-4.5-0.59-9.2-0.15-13.75c0.32-3.27,3.63-4.63,7.72-3.95
	C336.12,121.21,337.31,123,337.07,126.72z"/>
<path class="st2" d="M363.3,141.75c-1.11,0-1.85,0-2.8,0c0-6.08,0-12.11,0-18.31c-1.86,0-3.52,0-5.29,0c0-0.82,0-1.47,0-2.23
	c4.44,0,8.84,0,13.35,0c0,0.7,0,1.35,0,2.16c-1.7,0-3.36,0-5.26,0C363.3,129.55,363.3,135.57,363.3,141.75z"/>
<path class="st2" d="M419.22,127.48c-0.1-1.3-0.19-2.6-0.29-3.89c-0.08-0.03-0.16-0.07-0.24-0.1c-0.37,0.98-0.69,1.98-1.12,2.93
	c-0.18,0.39-0.57,0.68-0.87,1.02c-0.25-0.32-0.59-0.6-0.74-0.96c-0.4-0.96-0.71-1.96-1.46-2.92c0,1.29,0,2.58,0,4.02
	c-1.22-0.78-1.46-3.12-0.91-6.8c3.19-0.2,1.7,3.28,3.34,4.13c1.21-1.09,0.14-4,3.07-4.27c0,2.4,0,4.56,0,6.73
	C419.74,127.4,419.48,127.44,419.22,127.48z"/>
<path class="st2" d="M410.73,121.88c0,1.85,0,3.7,0,5.56c-0.27,0.01-0.54,0.02-0.81,0.03c-0.09-1.87-0.17-3.75-0.26-5.65
	c-0.61-0.18-1.16-0.33-1.7-0.49c0.01-0.12,0.02-0.25,0.03-0.37c1.55,0,3.1,0,4.64,0c0.03,0.12,0.06,0.24,0.1,0.36
	C412.22,121.46,411.7,121.61,410.73,121.88z"/>
<path class="st2" d="M270.97,125.4c-0.16-2.38-2.11-4.06-4.37-4.21c-2.59-0.16-5.2-0.04-7.89-0.04c0,6.92,0,13.69,0,20.8
	c2.81-0.17,5.54-0.18,8.23-0.55c2.25-0.31,3.89-1.86,4.03-4.1C271.22,133.35,271.24,129.35,270.97,125.4z M268.4,136.42
	c-0.09,1.64-1.31,2.67-3,2.87c-1.28,0.15-2.58,0.17-4.04,0.25c0-5.53,0-10.71,0-16.08c1.46,0,2.89-0.13,4.28,0.03
	c1.6,0.19,2.71,1.29,2.78,2.85C268.57,129.71,268.58,133.07,268.4,136.42z"/>
</svg>
